HIERARCHY
ROOT Hips
{
  OFFSET 2.26061 22.2878 23.7974
  CHANNELS 6 Xposition Yposition Zposition Zrotation Xrotation Yrotation
  JOINT LeftUpLeg
  {
    OFFSET 8.64259 1.95398 -2.38835
    CHANNELS 3 Zrotation Xrotation Yrotation
    JOINT LeftLeg
    {
      OFFSET 43.7702 0 0
      CHANNELS 3 Zrotation Xrotation Yrotation
      JOINT LeftFoot
      {
        OFFSET 40.6238 0 0
        CHANNELS 3 Zrotation Xrotation Yrotation
        JOINT LeftToeBase
        {
          OFFSET 12.7242 0 0
          CHANNELS 3 Zrotation Xrotation Yrotation
          End Site
          {
            OFFSET 0 0 0
          }
        }
      }
    }
  }
  JOINT RightUpLeg
  {
    OFFSET -8.2249 1.95398 -2.59336
    CHANNELS 3 Zrotation Xrotation Yrotation
    JOINT RightLeg
    {
      OFFSET 43.5653 0 0
      CHANNELS 3 Zrotation Xrotation Yrotation
      JOINT RightFoot
      {
        OFFSET 40.6238 0 0
        CHANNELS 3 Zrotation Xrotation Yrotation
        JOINT RightToeBase
        {
          OFFSET 12.7242 0 0
          CHANNELS 3 Zrotation Xrotation Yrotation
          End Site
          {
            OFFSET 0 0 0
          }
        }
      }
    }
  }
  JOINT Spine
  {
    OFFSET 0.165834 0.87714 6.61349
    CHANNELS 3 Zrotation Xrotation Yrotation
    JOINT Spine1
    {
      OFFSET 7.38963 1.71661e-005 0
      CHANNELS 3 Zrotation Xrotation Yrotation
      JOINT Spine2
      {
        OFFSET 11.9445 1.14441e-005 0
        CHANNELS 3 Zrotation Xrotation Yrotation
        JOINT Spine3
        {
          OFFSET 14.7254 4.19617e-005 0
          CHANNELS 3 Zrotation Xrotation Yrotation
          JOINT Spine4
          {
            OFFSET 10.9679 0 0
            CHANNELS 3 Zrotation Xrotation Yrotation
            JOINT RightShoulder
            {
              OFFSET 2.46616 -1.6653 3.69651
              CHANNELS 3 Zrotation Xrotation Yrotation
              JOINT RightArm
              {
                OFFSET 13.0012 0 0
                CHANNELS 3 Zrotation Xrotation Yrotation
                JOINT RightForeArm
                {
                  OFFSET 28.7848 1.52588e-005 0
                  CHANNELS 3 Zrotation Xrotation Yrotation
                  JOINT RightHand
                  {
                    OFFSET 26.5688 1.52588e-005 0
                    CHANNELS 3 Zrotation Xrotation Yrotation
                    End Site
                    {
                      OFFSET 0 0 0
                    }
                  }
                }
              }
            }
            JOINT LeftShoulder
            {
              OFFSET 2.38034 -1.29275 -3.7523
              CHANNELS 3 Zrotation Xrotation Yrotation
              JOINT LeftArm
              {
                OFFSET 16.3182 6.10351e-005 0
                CHANNELS 3 Zrotation Xrotation Yrotation
                JOINT LeftForeArm
                {
                  OFFSET 27.0901 0 0
                  CHANNELS 3 Zrotation Xrotation Yrotation
                  JOINT LeftHand
                  {
                    OFFSET 24.5451 1.52588e-005 0
                    CHANNELS 3 Zrotation Xrotation Yrotation
                    End Site
                    {
                      OFFSET 0 0 0
                    }
                  }
                }
              }
            }
            JOINT Neck
            {
              OFFSET 5.0226 -0.0266342 0
              CHANNELS 3 Zrotation Xrotation Yrotation
              JOINT Head
              {
                OFFSET 6.69363 2.86102e-005 0
                CHANNELS 3 Zrotation Xrotation Yrotation
                End Site
                {
                  OFFSET 0 0 0
                }
              }
            }
          }
        }
      }
    }
  }
}
MOTION
Frames:	12
Frame Time:	0.0416667
-286.941 82.4101 -303.854 -75.9229 -13.9375 -98.1709 -173 25.7187 108.326 24.1839 71.5635 -63.8806 0.789935 -62.1941 2.96368 -176.554 34.7287 -67.4281 144.288 51.9017 75.7282 -60.0865 -15.414 8.71785 95.744 -15.712 -6.20589 104.992 1.43294 -4.16142 2.03512 6.42547 -90.1892 14.0477 3.94079 -0.915293 2.38227 3.89666 -1.08809 -20.201 4.03338 0.313341 -0.188287 4.03338 0.313341 127.875 -33.1861 -33.8927 37.7886 -0.580049 21.9628 -25.5865 -8.52849 -75.6049 -28.0961 2.63458 -13.9807 -125.158 -13.2627 -0.670457 -40.9648 34.1062 10.2191 104.042 20.5461 -113.267 -46.2792 5.82783 -18.9848 41.2056 -0.69618 72.9593 -53.0967 -10.4437 -63.3363 
-283.245 85.4432 -301.188 -80.6227 -1.92453 -99.141 172.018 18.029 93.1368 -51.8857 40.0053 13.684 13.961 -30.7948 -17.4354 151.393 38.0447 -54.8387 157.315 46.5207 73.6472 -51.8416 -13.1011 6.65374 86.8116 -12.0924 -5.93861 17.2216 1.01815 -11.7661 -1.67487 7.4377 -90.9276 11.964 -3.7652 -1.41448 0.298964 -3.82388 -1.2472 -22.2703 -3.16578 -2.48128 -2.25768 -3.16579 -2.4813 108.161 -26.2078 -68.9317 48.2638 -12.0624 25.132 -13.7971 -8.90435 -76.5439 -25.0831 -0.701841 -1.63036 -129.64 -38.6274 16.7747 -14.699 10.3991 11.7122 95.8748 -10.9543 -82.0657 -40.1427 20.9435 -51.2128 58.2905 18.8522 45.5156 -39.3297 1.24672 -46.9407 
-278.567 89.5819 -295.753 -82.839 16.8226 -94.6716 173.544 12.4414 91.8588 -49.0268 25.888 9.60887 31.3178 -16.5116 -16.6292 114.954 42.9079 -30.1419 168.691 38.3395 80.8311 -34.4553 -13.642 3.05651 74.1822 -6.30327 -4.36486 7.22725 0.905394 -9.81522 -2.13321 8.0227 -90.4651 10.8243 -4.46198 -0.508085 -0.839164 -4.48002 -0.31084 -23.4269 -4.1028 -1.8277 -3.41424 -4.10281 -1.8277 99.0631 -31.8751 -88.0828 47.4631 -13.8513 29.0017 -13.354 -9.06663 -76.8705 -24.4027 -0.260649 -3.42548 -110.874 -44.7905 45.8464 -15.5051 -1.96842 15.1959 15.9409 -6.27015 -97.534 20.8441 -3.39579 -13.6444 47.046 6.72247 22.5535 -25.7942 0.258415 -29.651 
-272.532 91.9133 -288.634 -82.8419 38.5584 -92.702 -178.88 11.7879 89.2979 -47.2061 22.2131 4.94253 51.442 -6.64091 -4.47241 64.2979 28.2736 2.08494 179.032 33.0081 86.6633 -28.7661 -17.766 -2.52507 72.9526 -7.11618 -4.44601 -11.4941 -2.23714 0.29273 -0.368795 7.75754 -89.9971 11.3644 -0.732875 0.0722581 -0.306699 -0.728964 0.104438 -22.8414 -0.720744 -0.151326 -2.82876 -0.720733 -0.151323 96.2414 -41.2226 -92.3545 39.8992 -15.2424 31.7215 -11.5872 -7.84416 -79.3687 -24.8741 -0.123859 -4.16841 -103.532 -46.5761 57.4672 -18.7749 3.66481 18.1135 11.1466 -4.49723 -102.608 32.0179 1.05413 -0.354813 22.9276 1.74099 15.5762 -4.57286 -3.06439 -17.1573 
-264.39 91.5826 -280.037 -85.5771 44.8812 -90.8278 -177.276 14.7796 87.1426 -48.1521 16.5501 3.28638 65.3357 5.27645 4.59973 44.8193 13.7555 9.19246 -178.088 28.3044 88.2332 -41.4376 -8.93808 -5.01551 78.0196 -9.6994 -4.69344 -4.94915 -4.11358 6.20232 0.157904 7.65514 -89.7819 11.5628 0.416267 0.391617 -0.108178 0.433116 0.372911 -22.6431 0.279329 0.498615 -2.63049 0.279321 0.498617 95.7673 -50.2781 -91.8986 28.1948 -18.9187 25.0952 -10.1573 -8.32401 -80.6331 -24.8324 -0.348532 -3.22066 -100.999 -48.825 62.1094 -21.6169 9.90284 20.5206 12.5168 -4.92407 -95.8168 30.4868 0.90152 -1.00653 9.79109 1.88185 5.39186 6.45157 0.366897 -4.42657 
-256.296 90.5111 -271.922 -87.509 46.3145 -89.6352 -176.236 22.6261 86.5761 -51.5826 14.3844 1.58014 64.505 6.9233 6.56865 44.3174 13.0547 7.28953 -179.534 26.0941 89.6484 -60.0784 6.16099 -5.03589 69.2455 -5.70749 -3.04377 38.1006 0.716534 -10.7447 0.28567 7.63767 -89.6227 11.5956 0.745113 0.676031 -0.075349 0.774131 0.642584 -22.6098 0.507473 0.868704 -2.59716 0.507501 0.868705 93.6823 -54.6166 -94.434 20.3928 -19.9784 14.4887 -8.31089 -7.98342 -82.438 -24.9218 -0.528617 -2.46788 -98.1536 -49.8405 66.6304 -25.8174 14.3663 21.3313 10.4892 -4.88068 -83.3977 31.3952 1.5709 1.17953 12.0336 2.47475 -1.13293 1.13943 2.63858 -0.659351 
-248.631 88.6748 -264.609 -91.0851 48.9398 -87.5069 -174.035 27.4186 86.6015 -53.0344 12.6796 0.112505 68.358 10.4183 8.22839 38.9846 8.17652 3.82131 178.911 18.4696 88.636 -70.1597 7.62696 -4.87077 63.0282 -4.04688 -2.33758 43.0733 0.0711644 -10.4612 0.868305 7.89106 -89.5318 11.0865 1.94557 0.741864 -0.583215 1.97633 0.655491 -23.1253 1.63266 1.29238 -3.1126 1.63267 1.29238 92.8105 -52.9649 -95.9945 17.8315 -20.2431 3.14315 -18.992 -7.0363 -88.2843 -31.7772 -0.733008 -1.8043 -98.6435 -49.594 65.8316 -30.5584 17.0215 24.4069 1.98363 1.17599 -67.3675 38.3225 1.78396 0.582416 14.5189 0.821881 -1.47564 -1.37913 1.13 -0.670848 
-241.733 90.2265 -257.88 -92.0242 49.5044 -87.2603 -174.698 28.7728 86.5494 -43.792 11.5745 0.0368357 63.8579 6.25883 5.78601 33.438 3.56405 3.05284 175.244 6.26465 85.8732 -62.973 2.86817 -5.0367 60.3316 -2.10592 -1.21421 45.0419 -0.105067 -11.8078 1.329 7.80491 -89.7132 11.2641 2.77859 0.296625 -0.403812 2.78893 0.173942 -22.96 2.56088 1.11852 -2.94737 2.56087 1.11851 93.5852 -45.3906 -96.1156 21.7367 -22.3222 -1.99645 -17.5489 0.94712 -94.4473 -29.9273 -0.111789 -4.26477 -99.671 -52.6567 65.4184 -34.5067 18.3312 34.7555 -1.6161 -1.37462 -69.895 39.4443 2.59356 2.64896 13.9011 -0.210923 5.77293 -2.48073 -1.63861 -6.40414 
-233.423 94.1743 -250.474 -90.2587 50.1612 -88.3657 -175.816 24.0101 89.1502 -16.4806 14.419 0.250368 46.2706 -7.10615 -3.05725 27.4512 -1.67728 5.02231 174.982 -1.08547 87.0747 -50.07 -5.30494 -6.45611 55.8401 0.413648 0.500518 44.7787 0.0284117 -10.2094 1.83094 7.73298 -89.7937 11.4126 3.73948 0.0332599 -0.252944 3.7373 -0.131591 -22.8283 3.55635 1.15703 -2.81567 3.55636 1.15703 93.0394 -44.1567 -97.2527 20.5128 -23.0427 -2.94508 -21.5775 2.70253 -102.645 -29.1293 -0.0485907 -4.27541 -95.7974 -50.366 70.2448 -39.8073 17.7542 40.1314 -2.74068 -2.1801 -73.9075 42.2228 2.08916 0.942039 11.8807 -1.97561 7.90467 -1.51659 -3.79789 -7.32381 
-224.661 96.7835 -242.768 -83.533 49.1954 -92.3076 -175.103 27.0707 91.5686 -6.12143 22.0027 -0.420575 41.9335 -11.7324 -9.44298 35.7889 5.48602 11.5366 177.779 -0.431084 91.2652 -41.8411 -15.5318 -6.95607 47.1785 3.43543 3.06226 45.8703 0.123772 -8.58378 1.69846 7.3158 -89.9619 12.2515 3.3937 -0.306097 0.584859 3.37694 -0.455333 -21.9847 3.32862 0.729164 -1.97206 3.32861 0.72916 93.112 -44.2976 -97.1041 19.255 -27.0506 -1.48529 -20.9989 3.57227 -103.416 -29.6306 0.173415 -5.21534 -92.5651 -49.1892 74.6956 -42.5052 13.4835 42.0589 -1.78733 -2.36738 -78.2786 43.0218 1.85488 0.277086 9.37279 -2.14035 10.0734 0.326976 -4.41051 -9.42525 
-215.026 97.4392 -235.046 -83.1058 46.8658 -94.8861 -175.576 27.2804 90.0374 -18.5365 19.0661 0.0605268 49.6757 -6.00622 -2.46543 39.4826 9.23318 14.9551 178.349 3.6827 92.3384 -41.9807 -17.1614 -6.79728 48.5523 3.12681 2.75278 39.4231 0.306134 -6.87906 1.27211 7.50259 -89.7979 11.8703 2.62482 0.12379 0.202038 2.62771 0.00806173 -22.3525 2.46619 0.907422 -2.33987 2.46618 0.907408 93.0563 -45.4201 -96.9727 21.2572 -27.7956 5.24128 -17.4316 2.36106 -100.329 -25.8136 0.182663 -5.41225 -94.605 -50.9846 72.1724 -39.6798 11.5728 40.0968 -0.0863857 -2.31052 -82.2937 42.702 2.25067 1.31219 9.44208 -1.69001 10.5803 2.09412 -4.19834 -8.99731 
-204.911 95.8819 -226.748 -86.3291 46.6639 -95.9349 -173.491 27.0607 88.2126 -42.7113 12.3874 -0.840976 52.4302 -4.18308 -2.23727 39.5828 9.43394 16.4498 178.755 8.16753 91.4808 -44.7743 -11.9092 -6.32072 54.8461 0.556327 0.546219 45.6365 0.482435 -4.50248 0.955363 7.8121 -89.3989 11.2419 2.18094 0.982675 -0.427463 2.2221 0.885691 -22.9705 1.78481 1.59282 -2.95789 1.7848 1.59281 93.2414 -48.7853 -96.0559 21.8035 -25.6509 12.7435 -16.3717 -2.88333 -92.9283 -22.4259 -0.16885 -4.01288 -94.5653 -50.7738 72.1684 -35.7262 13.5007 35.3406 5.39223 -1.64473 -82.7418 40.3599 2.07326 1.1514 7.63556 -0.84093 7.07739 4.2003 -2.49389 -5.54457 
